<svg xmlns="http://www.w3.org/2000/svg" viewBox="0 0 2500 328.6" style="enable-background:new 0 0 2500 328.6" xml:space="preserve"><path d="M187.4 33.9C187.4 6.8 161.6 0 141.2 0v4.1c12.2 0 21.7 4.1 21.7 13.6 0 5.4-4.1 13.6-16.3 13.6-9.5 0-29.9-5.4-44.8-10.9C84.2 13.6 67.9 8.1 54.3 8.1 27.2 8.1 8.1 28.5 8.1 51.6 8.1 72 23 78.8 28.5 81.5l1.4-2.7c-2.7-2.7-6.8-5.4-6.8-13.6 0-5.4 5.4-14.9 19-14.9 12.2 0 28.5 5.4 50.2 12.2 19 5.4 39.4 9.5 50.2 10.9v42.1l-20.4 17.7v1.4l20.4 17.7v58.4c-10.9 6.8-23.1 8.1-33.9 8.1-20.4 0-38-5.4-53-21.7l55.7-27.2V76l-67.9 29.9c5.4-17.7 20.4-29.9 35.3-38l-1.4-4.1C36.7 74.7 0 112.7 0 158.9 0 213.2 44.8 254 95.1 254c54.3 0 89.6-43.5 89.6-88.3H182c-8.1 17.7-20.4 33.9-35.3 42.1v-55.7l21.7-17.7V133l-21.7-17.7v-42c20.3 0 40.7-13.5 40.7-39.4zM69.3 183.3 53 191.5c-9.5-12.2-15-28.5-15-51.6 0-9.5 0-20.4 2.7-28.5l28.5-12.2v84.1zm143.9 31.3-17.7 13.6 2.7 2.7 8.1-6.8 29.9 27.2 40.7-27.2-1.4-2.7-10.9 6.8-13.6-13.6v-92.3l10.9-8.1 23.1 19V216c0 51.6-10.9 59.8-33.9 67.9v4.1c38 1.4 73.3-10.9 73.3-77.4V121l12.2-9.5-2.7-2.7-10.9 8.1-33.9-28.5-38 28.5V5.4h-2.7L201 38v2.7c5.4 2.7 13.6 5.4 13.6 20.4l-1.4 153.5zm248.5-15-33.9 25.8-33.9-27.2V182l63.8-43.5v-1.4L425 88.3l-70.6 38v89.6l-13.6 10.9 2.7 2.7 12.2-9.5 46.2 33.9L463 205c.1.1-1.3-5.4-1.3-5.4zm-67.9-23.1V110l2.7-1.4 29.9 47.5c0 .1-32.6 20.4-32.6 20.4zM721.1 21.7c0-4.1-1.4-8.1-2.7-12.2h-2.7c-4.1 10.9-9.5 16.3-23.1 16.3-12.2 0-20.4-6.8-25.8-12.2l-39.4 44.8 2.7 2.7 13.6-12.2c8.1 6.8 14.9 12.2 33.9 13.6v112.7L597.5 38c-6.8-10.9-16.3-25.8-35.3-25.8-21.7 0-40.7 19-38 48.9h4.1c1.4-8.1 5.4-17.7 14.9-17.7 6.8 0 13.6 6.8 17.7 13.6v44.8c-24.4 0-40.7 10.9-40.7 31.2 0 10.9 5.4 27.2 21.7 31.2v-2.7c-2.7-2.7-4.1-5.4-4.1-9.5 0-6.8 5.4-12.2 14.9-12.2h6.8v57c-28.5 0-51.6 16.3-51.6 43.5 0 25.8 21.7 38 46.2 36.7v-2.7c-14.9-1.4-21.7-8.1-21.7-17.7 0-12.2 8.1-17.7 19-17.7s20.4 6.8 27.2 14.9l39.4-43.5-2.7-2.7-9.5 10.9c-14.9-13.6-23.1-17.7-40.7-20.4V62.5l108.6 190.1h8.1V62.5c20.3-1.4 39.3-17.7 39.3-40.8zm99.1 177.9-33.9 25.8-33.9-27.2V182l63.8-43.5v-1.4l-32.6-48.9-70.6 38v89.6l-13.6 10.9 2.7 2.7 12.2-9.5 46.2 33.9 61.1-48.9c0 .2-1.4-5.3-1.4-5.3zm-67.9-23.1V110l2.7-1.4 29.9 47.5c0 .1-32.6 20.4-32.6 20.4zm289.3-73.3-9.5 6.8-25.8-21.7-29.9 27.2 12.2 12.2v101.8L956 209.1v-84.2l10.9-6.8-31.2-29.9-29.9 27.2 12.2 12.2v97.8l-4.1 2.7-28.5-20.4v-81.5c0-19-9.5-24.4-20.4-31.2-9.5-6.8-14.9-10.9-14.9-20.4 0-8.1 8.1-12.2 12.2-14.9V57c-10.9 0-39.4 10.9-39.4 36.7 0 13.6 6.8 19 13.6 25.8s13.6 12.2 13.6 24.4v78.8l-14.9 10.9 2.7 2.7 13.6-10.9 31.2 27.2 33.9-23.1 38 23.1 72-42.1v-91l17.7-13.6-2.7-2.7zm252.5-74.7-13.6 12.2-29.9-27.2-44.8 32.6V16.3h-4.1l1.4 220c-4.1 0-16.3-2.7-25.8-5.4l-2.7-183.3c0-13.6-9.5-32.6-33.9-32.6S1100 34 1100 53h4.1c1.4-8.1 5.4-14.9 13.6-14.9s14.9 5.4 14.9 23.1v53c-24.4 1.4-39.4 14.9-39.4 32.6 0 10.9 5.4 27.2 21.7 27.2v-2.7c-5.4-2.7-6.8-6.8-6.8-9.5 0-8.1 6.8-10.9 17.7-10.9h5.4v84.2c-20.4 6.8-28.5 21.7-28.5 38 0 23.1 17.7 39.4 44.8 39.4 19 0 35.3-2.7 51.6-6.8 13.6-2.7 31.2-6.8 39.4-6.8 10.9 0 14.9 5.4 14.9 12.2 0 9.5-4.1 13.6-9.5 14.9v2.7c21.7-4.1 35.3-17.7 35.3-38s-20.4-32.6-42.1-32.6c-10.9 0-33.9 4.1-50.2 6.8-19 4.1-38 6.8-43.5 6.8-9.5 0-20.4-4.1-20.4-17.7 0-10.9 9.5-20.4 32.6-20.4 12.2 0 27.2 1.4 42.1 5.4 16.3 4.1 31.2 8.1 44.8 8.1 20.4 0 38-6.8 38-35.3v-167l16.3-13.6-2.7-2.7zm-55.6 82.9c-4.1 4.1-9.5 8.1-16.3 8.1s-13.6-4.1-16.3-8.1V51.6l13.6-9.5 19 17.7v51.6zm0 40.7c-2.7-2.7-9.5-6.8-16.3-6.8s-13.6 4.1-16.3 6.8v-35.3c2.7 2.7 9.5 6.8 16.3 6.8s13.6-4.1 16.3-6.8v35.3zm0 63.8c0 10.9-6.8 21.7-21.7 21.7h-10.9v-80.1c2.7-2.7 9.5-6.8 16.3-6.8s12.2 4.1 16.3 6.8v58.4zm186-96.4L1381 88.3l-66.5 38v88.3l-13.6 10.9 1.4 2.7 10.9-8.1 43.5 32.6 67.9-40.7c-.1-.2-.1-92.5-.1-92.5zm-73.3 85.6v-97.8l33.9 24.4v96.4l-33.9-23zM1553.5 91h-2.7c-4.1 2.7-8.1 5.4-12.2 5.4-5.4 0-12.2-2.7-14.9-6.8h-2.7l-23.1 25.8-23.1-25.8-40.7 27.2 1.4 2.7 10.9-6.8 13.6 14.9v85.6l-17.7 13.6 2.7 2.7 8.1-6.8 32.6 27.2 42.1-28.5-1.4-2.7-12.2 6.8-16.3-13.6v-95.1c6.8 6.8 14.9 13.6 24.4 13.6 19 1.3 29.8-17.7 31.2-39.4zm163 130.3-46.2 31.2-62.5-95.1 44.8-69.3h2.7c5.4 5.4 13.6 10.9 23.1 10.9s16.3-5.4 20.4-10.9h2.7c-1.4 27.2-20.4 43.5-33.9 43.5-13.6 0-20.4-6.8-28.5-10.9l-4.1 6.8 67.9 100.5 13.6-8.1v1.4zm-149.4-6.7-17.7 13.6 2.7 2.7 8.1-6.8 29.9 27.2 40.7-27.2-2.7-2.7-10.9 6.8-13.6-13.6V5.4h-1.4L1553.5 38v2.7c5.4 2.7 13.6 4.1 13.6 20.4v153.5zm374.8-180.7c0-27.2-25.8-33.9-46.2-33.9v4.1c12.2 0 21.7 4.1 21.7 13.6 0 5.4-4.1 13.6-16.3 13.6-9.5 0-29.9-5.4-44.8-10.9-17.7-5.4-33.9-10.9-47.5-10.9-27.2 0-46.2 20.4-46.2 43.5 0 20.4 14.9 27.2 20.4 29.9l1.4-2.7c-4.1-2.7-8.1-5.4-8.1-13.6 0-5.4 5.4-14.9 19-14.9 12.2 0 28.5 5.4 50.2 12.2 19 5.4 39.4 9.5 50.2 10.9v42.1l-20.4 17.7v1.4l20.4 17.7v58.4c-10.9 6.8-23.1 8.1-33.9 8.1-20.4 0-38-5.4-53-21.7l55.7-27.2V76l-67.9 29.9c6.8-17.7 21.7-29.9 35.3-39.4l-1.4-2.7c-40.7 10.9-77.4 47.5-77.4 93.7 0 54.3 44.8 95.1 95.1 95.1 54.3 0 89.6-43.5 89.6-88.3h-2.7c-8.1 17.7-20.4 33.9-35.3 42.1v-55.7l21.7-17.7v-1.4l-20.4-17.7V73.3c20.4 0 40.8-13.5 40.8-39.4zm-118.2 149.4-16.3 8.1c-9.5-12.2-14.9-28.5-14.9-51.6 0-9.5 1.4-20.4 4.1-28.5l28.5-12.2-1.4 84.2zm165.7-162.9h-1.4l-27.2 23.1v1.4l23.1 25.8h2.7l27.2-23.1v-1.4l-24.4-25.8zm40.7 200.9-10.9 6.8-13.6-13.6v-93.7l13.6-9.5-2.7-2.7-9.5 8.1-24.4-28.5-39.4 27.2 2.7 4.1 9.5-6.8 12.2 14.9v88.3l-17.7 13.6 1.4 2.7 9.5-6.8 29.9 27.2 40.7-27.2-1.3-4.1zm226.8-1.3-9.5 6.8-14.9-13.6v-92.3l13.6-10.9-2.7-2.7-10.9 9.5-31.2-28.5-40.7 28.5-31.2-28.5-38 28.5-24.4-28.5-39.4 27.2 1.4 4.1 9.5-6.8 13.6 14.9V216l-10.9 10.9 31.2 25.8 29.9-27.2-12.2-12.2V121l12.2-8.1 20.4 19v81.5l-10.9 10.9 31.2 25.8 29.9-27.2-12.2-12.2v-89.6l10.9-6.8 21.7 19v81.5l-9.5 9.5 31.2 28.5 42.1-28.5-.2-4.3zm118.2-20.4-33.9 25.8-33.9-27.2V182l63.8-43.5v-1.4l-32.6-48.9-70.6 38v92.3l47.5 33.9 61.1-48.9c-.1.2-1.4-3.9-1.4-3.9zm-67.9-23.1V110l2.7-1.4 29.9 47.5c0 .1-32.6 20.4-32.6 20.4zm191.4-12.2-25.8-20.4c17.7-14.9 24.4-35.3 24.4-48.9v-8.1h-2.7c-2.7 6.8-8.1 13.6-19 13.6s-17.7-5.4-24.4-13.6l-61.1 33.9v48.9l23.1 17.7c-23.1 20.4-27.2 33.9-27.2 44.8 0 13.6 6.8 23.1 17.7 27.2l1.4-2.7c-2.7-2.7-5.4-4.1-5.4-10.9 0-4.1 5.4-10.9 16.3-10.9 13.6 0 21.7 9.5 25.8 13.6l58.4-35.3v-48.9h-1.5zm-14.9-40.7c-9.5 16.3-29.9 32.6-42.1 40.7l-14.9-12.2v-47.5c5.4 13.6 20.4 24.4 35.3 24.4 9.5 0 14.9-1.4 21.7-5.4zm-23.1 108.6c-6.8-14.9-23.1-25.8-39.4-25.8-4.1 0-14.9 0-25.8 6.8 6.8-10.9 24.4-29.9 47.5-43.5l16.3 13.6 1.4 48.9z"/></svg>